<svg xmlns="http://www.w3.org/2000/svg" viewBox="0 0 433.42 132.09"><defs><style>.cls-1{isolation:isolate;}.cls-2{fill:#95d600;}.cls-2,.cls-3,.cls-4,.cls-5{mix-blend-mode:multiply;}.cls-3{fill:#ffa400;}.cls-4{fill:#00bfd6;}.cls-5{fill:#dd0031;}.cls-6{fill:#7d868c;}</style></defs><title>equatronic-logo</title><g class="cls-1"><g id="Capa_1" data-name="Capa 1"><path class="cls-2" d="M113.12,143L96.65,160.73q-0.19,1-.33,1.92L113.23,145C113.16,144.36,113.14,143.69,113.12,143Z" transform="translate(-69.36 -75.69)"/><path class="cls-2" d="M113.07,141.78c0-.52,0-1,0.07-1.54L97.58,157c-0.22.74-.42,1.5-0.6,2.26l16.12-16.81C113.09,142.22,113.07,142,113.07,141.78Z" transform="translate(-69.36 -75.69)"/><path class="cls-2" d="M113.72,135.4a39.58,39.58,0,0,0-3.88,2.86l-6.35,6.83a39.36,39.36,0,0,0-3.29,5.36l13.3-13.87Q113.6,136,113.72,135.4Z" transform="translate(-69.36 -75.69)"/><path class="cls-2" d="M113.42,137.17l-14.13,15.2c-0.43,1-.82,2-1.18,3l15-15.7C113.21,138.81,113.3,138,113.42,137.17Z" transform="translate(-69.36 -75.69)"/><path class="cls-2" d="M113.3,145.57L96.17,164c-0.06.56-.11,1.12-0.15,1.68l17.53-18.29C113.44,146.8,113.37,146.18,113.3,145.57Z" transform="translate(-69.36 -75.69)"/><path class="cls-2" d="M115.15,153.07c-0.12-.29-0.2-0.59-0.31-0.89L95.69,172.77l-0.06,1.46,19.77-20.62C115.32,153.42,115.22,153.26,115.15,153.07Z" transform="translate(-69.36 -75.69)"/><path class="cls-2" d="M118.62,159.14L95.19,184.3l-0.06,1.31,24.33-25.39C119.17,159.87,118.89,159.51,118.62,159.14Z" transform="translate(-69.36 -75.69)"/><path class="cls-2" d="M116.5,155.9L95.44,178.52l-0.06,1.4,21.85-22.79C117,156.72,116.73,156.32,116.5,155.9Z" transform="translate(-69.36 -75.69)"/><path class="cls-2" d="M117.5,157.58L95.31,181.42l-0.06,1.36,23.05-24.05C118,158.35,117.75,158,117.5,157.58Z" transform="translate(-69.36 -75.69)"/><path class="cls-2" d="M114.17,150.15L95.81,169.88l-0.06,1.49,18.91-19.72C114.49,151.15,114.31,150.66,114.17,150.15Z" transform="translate(-69.36 -75.69)"/><path class="cls-2" d="M135.94,128.91c-0.16.15-.35,0.28-0.5,0.44a11.26,11.26,0,0,0-1.48,2.18l2.52-2.62h-0.54Z" transform="translate(-69.36 -75.69)"/><path class="cls-2" d="M113.65,147.95L95.94,167l-0.07,1.55L114,149.59C113.9,149,113.76,148.5,113.65,147.95Z" transform="translate(-69.36 -75.69)"/><path class="cls-2" d="M115.62,154.09L95.56,175.64l-0.06,1.44,20.74-21.64C116,155,115.82,154.54,115.62,154.09Z" transform="translate(-69.36 -75.69)"/><path class="cls-2" d="M140.5,146.67l-5.73,6.16a10.31,10.31,0,0,0,.92,1.13L135.8,154l7.06-7.37H140.5Z" transform="translate(-69.36 -75.69)"/><path class="cls-2" d="M132.31,146.67s0,0.08,0,.12l0.11-.12h-0.14Z" transform="translate(-69.36 -75.69)"/><path class="cls-2" d="M135.05,146.67h-2.26l-0.38.41a19,19,0,0,0,.45,1.87Z" transform="translate(-69.36 -75.69)"/><path class="cls-2" d="M150.76,146.67l-9.12,9.8c0.36,0,.7.08,1.08,0.08a11.12,11.12,0,0,0,1.21-.12l9.35-9.76h-2.51Z" transform="translate(-69.36 -75.69)"/><path class="cls-2" d="M153.33,146.67l-9,9.72a8,8,0,0,0,3.53-1.31l2-2.08c0.09-.15.21-0.25,0.3-0.4h0.09l5.68-5.93h-2.55Z" transform="translate(-69.36 -75.69)"/><path class="cls-2" d="M136.5,128.91l-2.69,2.89a16.27,16.27,0,0,0-1.4,4.05l6.41-6.68-6.47,7c0,0.05,0,.1,0,0.15h2.3l5.57-5.81-5.41,5.81h2.44l4.33-4.52-4.21,4.52h2.48l3.1-3.23-3,3.23h2.51l1.86-1.94-1.81,1.94H145l0.62-.65-0.6.65h5.58a14.41,14.41,0,0,0-1.54-4.9,39.33,39.33,0,0,0-12-2.45H136.5Z" transform="translate(-69.36 -75.69)"/><path class="cls-2" d="M149,154.06l-0.38.41C148.78,154.34,148.9,154.19,149,154.06Z" transform="translate(-69.36 -75.69)"/><path class="cls-2" d="M148.07,146.67h-2.44l-8.06,8.66a8.64,8.64,0,0,0,1.55.68Z" transform="translate(-69.36 -75.69)"/><path class="cls-2" d="M150.67,146.67h-2.48l-8.76,9.42a10.94,10.94,0,0,0,1.88.36Z" transform="translate(-69.36 -75.69)"/><path class="cls-2" d="M140.26,146.67h-2.32l-4.18,4.49a11.84,11.84,0,0,0,.82,1.43Z" transform="translate(-69.36 -75.69)"/><path class="cls-2" d="M137.65,146.67h-2.29L133,149.25a14.69,14.69,0,0,0,.63,1.65Z" transform="translate(-69.36 -75.69)"/><path class="cls-2" d="M145.47,146.67h-2.4l-7,7.56a8,8,0,0,0,1.27,1Z" transform="translate(-69.36 -75.69)"/><path class="cls-2" d="M130.9,168L95.47,206.1l0.85,0,36-37.63C131.87,168.35,131.38,168.19,130.9,168Z" transform="translate(-69.36 -75.69)"/><path class="cls-2" d="M154.08,167.93l-36.4,39.13,1.07,0,39.57-41.27A25.56,25.56,0,0,1,154.08,167.93Z" transform="translate(-69.36 -75.69)"/><path class="cls-2" d="M168.3,146.67h-12.4l-5.51,5.93h2.41l5.14-5.36-5,5.36h2.45l3.9-4.07-3.78,4.07H158l2.66-2.78-2.58,2.78h2.52l1.43-1.49-1.38,1.49h2.56l0.19-.2-0.18.2h5.94a17.39,17.39,0,0,1-3.49,7,26.3,26.3,0,0,1-6.61,5.83l-0.11.07-38.79,41.7,1.12,0,47.58-49.64-46.25,49.7,1.16,0.05,46.45-48.46-45.15,48.52,1.19,0.05,45.32-47.28-44,47.33,1.22,0.05,44.19-46.09L130,207.59l1.24,0.05,43.06-44.91-41.83,45,1.19,0.05h0.09l40.93-42.69A39.22,39.22,0,0,0,168.3,146.67Z" transform="translate(-69.36 -75.69)"/><path class="cls-2" d="M161.07,198.26l5.3-5.52a39.38,39.38,0,0,0,4.3-6.77l-15.15,16.29A39.6,39.6,0,0,0,161.07,198.26Z" transform="translate(-69.36 -75.69)"/><path class="cls-2" d="M174.69,165.09L135,207.78h1.38l38.47-40.13C174.8,166.79,174.75,165.94,174.69,165.09Z" transform="translate(-69.36 -75.69)"/><path class="cls-2" d="M119.82,160.61l-24.76,26.6L95,188.44l25.73-26.84C120.42,161.28,120.12,160.95,119.82,160.61Z" transform="translate(-69.36 -75.69)"/><path class="cls-2" d="M151.3,168.83l-0.78.17-35.3,38,1,0,37.23-38.83C152.77,168.42,152,168.65,151.3,168.83Z" transform="translate(-69.36 -75.69)"/><path class="cls-2" d="M137.58,207.73c0.51,0,1-.07,1.52-0.12l35.66-37.2c0-.12,0-0.24,0-0.36,0-.78,0-1.56,0-2.33Z" transform="translate(-69.36 -75.69)"/><path class="cls-2" d="M153.63,203.3l17.47-18.22a39.21,39.21,0,0,0,1.65-4.12l-22.08,23.74C151.68,204.28,152.67,203.81,153.63,203.3Z" transform="translate(-69.36 -75.69)"/><path class="cls-2" d="M142.07,207.22l32.42-33.81q0.18-1.42.27-2.88L140.4,207.46C141,207.39,141.52,207.31,142.07,207.22Z" transform="translate(-69.36 -75.69)"/><path class="cls-2" d="M144.65,169.8L110.3,206.74l1,0,35.63-37.16Q145.8,169.74,144.65,169.8Z" transform="translate(-69.36 -75.69)"/><path class="cls-2" d="M149.07,205.34l23.84-24.86q0.55-1.7.94-3.46l-27,29.07C147.57,205.86,148.33,205.62,149.07,205.34Z" transform="translate(-69.36 -75.69)"/><path class="cls-2" d="M145.35,206.52l28.58-29.8q0.33-1.53.55-3.11l-31,33.36Q144.4,206.76,145.35,206.52Z" transform="translate(-69.36 -75.69)"/><path class="cls-2" d="M147.46,169.54l-34.7,37.31,1,0L150,169.12C149.16,169.29,148.32,169.43,147.46,169.54Z" transform="translate(-69.36 -75.69)"/><path class="cls-2" d="M124,164.4L94.68,195.94l0,1.06,30.49-31.82C124.75,164.93,124.39,164.66,124,164.4Z" transform="translate(-69.36 -75.69)"/><path class="cls-2" d="M125.58,165.46l-31,33.35,0,1,32.29-33.7C126.39,165.93,126,165.71,125.58,165.46Z" transform="translate(-69.36 -75.69)"/><path class="cls-2" d="M127.26,166.42L94.43,201.7l0,1L128.56,167C128.12,166.84,127.68,166.64,127.26,166.42Z" transform="translate(-69.36 -75.69)"/><path class="cls-2" d="M121.11,162L94.94,190.14l0,1.13,27.23-28.39C121.78,162.58,121.43,162.31,121.11,162Z" transform="translate(-69.36 -75.69)"/><path class="cls-2" d="M122.53,163.24L94.81,193.06l0,1.07,28.81-30.05C123.22,163.81,122.87,163.53,122.53,163.24Z" transform="translate(-69.36 -75.69)"/><path class="cls-2" d="M135,169.16l-34.55,37.16,0.86,0,35.35-36.9C136.08,169.37,135.53,169.27,135,169.16Z" transform="translate(-69.36 -75.69)"/><path class="cls-2" d="M137.21,169.53l-34.3,36.89,0.87,0L139,169.75C138.37,169.7,137.79,169.61,137.21,169.53Z" transform="translate(-69.36 -75.69)"/><path class="cls-2" d="M130.23,167.79c-0.41-.16-0.79-0.36-1.19-0.53L94.31,204.59l0,1,36.13-37.72Z" transform="translate(-69.36 -75.69)"/><path class="cls-2" d="M139.56,169.77l-34.17,36.76,0.9,0,35.19-36.72Q140.5,169.83,139.56,169.77Z" transform="translate(-69.36 -75.69)"/><path class="cls-2" d="M142.09,169.87H142l-34.19,36.76,0.92,0,35.34-36.85C143.43,169.85,142.78,169.87,142.09,169.87Z" transform="translate(-69.36 -75.69)"/><path class="cls-2" d="M132.86,168.67L97.94,206.21l0.86,0L134.45,169C133.92,168.92,133.38,168.82,132.86,168.67Z" transform="translate(-69.36 -75.69)"/><path class="cls-3" d="M114.66,132l-31.08,8.58-0.84,1.31,31.38-8.18C114.28,133.14,114.47,132.57,114.66,132Z" transform="translate(-69.36 -75.69)"/><path class="cls-3" d="M118.05,125.23l-29.91,8.26-0.91,1.41,29.59-7.71C117.21,126.52,117.62,125.86,118.05,125.23Z" transform="translate(-69.36 -75.69)"/><path class="cls-3" d="M116.6,127.57l-30,8.27-0.89,1.38,29.94-7.8C116,128.8,116.28,128.17,116.6,127.57Z" transform="translate(-69.36 -75.69)"/><path class="cls-3" d="M114,134.14l-32,8.83-0.8,1.25,32.38-8.43C113.74,135.23,113.88,134.68,114,134.14Z" transform="translate(-69.36 -75.69)"/><path class="cls-3" d="M115.15,130.6c0.11-.27.24-0.51,0.35-0.77l-30.4,8.39-0.86,1.34,30.56-8C114.92,131.27,115,130.93,115.15,130.6Z" transform="translate(-69.36 -75.69)"/><path class="cls-3" d="M113.55,136.23l-33,9.13-0.76,1.18,33.58-8.74C113.4,137.27,113.46,136.74,113.55,136.23Z" transform="translate(-69.36 -75.69)"/><path class="cls-3" d="M113.08,142.2L76,152.47l-0.71,1.1,37.9-9.88C113.12,143.19,113.09,142.7,113.08,142.2Z" transform="translate(-69.36 -75.69)"/><path class="cls-3" d="M113.17,144.13L74.43,154.84l-0.69,1.07,39.56-10.32C113.25,145.11,113.2,144.62,113.17,144.13Z" transform="translate(-69.36 -75.69)"/><path class="cls-3" d="M113.27,138.26L79,147.75l-0.73,1.13,34.9-9.09C113.18,139.28,113.22,138.76,113.27,138.26Z" transform="translate(-69.36 -75.69)"/><path class="cls-3" d="M113.13,140.24l-35.67,9.87-0.72,1.12,36.32-9.47C113.07,141.25,113.11,140.75,113.13,140.24Z" transform="translate(-69.36 -75.69)"/><path class="cls-3" d="M132.74,148.47a15.72,15.72,0,0,0,.55,1.62l11.13-2.9-11.07,3.07a12.84,12.84,0,0,0,.77,1.56L144.91,149l-10.7,3a10.75,10.75,0,0,0,1.07,1.49l10.12-2.63-10,2.77c0.11,0.12.2,0.26,0.31,0.38a8,8,0,0,0,1.23,1l9-2.33-8.82,2.44a8.81,8.81,0,0,0,2.67,1.1l6.63-1.73-6.43,1.78a12.2,12.2,0,0,0,2.79.34q5.2,0,7.39-4h13.16a39.53,39.53,0,0,0-.17-5.93H139.21Z" transform="translate(-69.36 -75.69)"/><path class="cls-3" d="M150.62,136.27a12.42,12.42,0,0,0-3-7,7.72,7.72,0,0,0-5.88-2.5,9.58,9.58,0,0,0-3.67.67l1-.25-1,.28a7.25,7.25,0,0,0-2.62,1.85,10.74,10.74,0,0,0-.71.94l4.84-1.26-4.92,1.36a12.36,12.36,0,0,0-1.22,2.18l6.62-1.72-6.67,1.85a16.32,16.32,0,0,0-.69,2l7.84-2-7.87,2.18c-0.12.47-.25,0.93-0.35,1.43h1.83l6.88-1.79-6.49,1.79h16.09Z" transform="translate(-69.36 -75.69)"/><path class="cls-3" d="M132.31,146.67c0.1,0.57.24,1.1,0.38,1.62l6.22-1.62h-6.6Z" transform="translate(-69.36 -75.69)"/><path class="cls-3" d="M113.36,146L72.91,157.2l-0.67,1,41.32-10.78C113.47,147,113.42,146.5,113.36,146Z" transform="translate(-69.36 -75.69)"/><path class="cls-3" d="M115.6,112.28l-4.33,1.2a39.47,39.47,0,0,0-7.78,3.6l21.73-5.66A39.61,39.61,0,0,0,115.6,112.28Z" transform="translate(-69.36 -75.69)"/><path class="cls-3" d="M125.67,111.44L102.07,118q-1.54,1-3,2.19L130.59,112A39.27,39.27,0,0,0,125.67,111.44Z" transform="translate(-69.36 -75.69)"/><path class="cls-3" d="M120,122.75l-30.34,8.39-0.92,1.43,29.58-7.7A26.32,26.32,0,0,1,120,122.75Z" transform="translate(-69.36 -75.69)"/><path class="cls-3" d="M129.92,115.72a28.53,28.53,0,0,1,7.61-1.89c-1-.36-2-0.69-2.94-1L95.21,123.76q-0.77.82-1.5,1.69l34.81-9.07C129,116.16,129.43,115.92,129.92,115.72Z" transform="translate(-69.36 -75.69)"/><path class="cls-3" d="M127.91,116.66L93,126.32q-0.6.76-1.17,1.56l31.31-8.15A26.54,26.54,0,0,1,127.91,116.66Z" transform="translate(-69.36 -75.69)"/><path class="cls-3" d="M130.73,112L98,121q-1,.9-2,1.87l38.54-10A39.21,39.21,0,0,0,130.73,112Z" transform="translate(-69.36 -75.69)"/><path class="cls-3" d="M121,121.65c0.56-.57,1.16-1.1,1.77-1.61l-31.53,8.72c-0.17.26-.35,0.51-0.52,0.77l-0.45.7,30.07-7.83C120.54,122.15,120.74,121.89,121,121.65Z" transform="translate(-69.36 -75.69)"/><path class="cls-3" d="M124.15,164.48L87.77,174.55l1.09,0.7,37-9.64C125.26,165.26,124.7,164.88,124.15,164.48Z" transform="translate(-69.36 -75.69)"/><path class="cls-3" d="M131.63,168.26L94.13,178.63l1.18,0.76,39.46-10.28A29.27,29.27,0,0,1,131.63,168.26Z" transform="translate(-69.36 -75.69)"/><path class="cls-3" d="M135.23,169.21L96.25,180l1.21,0.78,42.21-11A34,34,0,0,1,135.23,169.21Z" transform="translate(-69.36 -75.69)"/><path class="cls-3" d="M126.26,165.85L89.88,175.9,91,176.63l37.26-9.71C127.58,166.59,126.91,166.23,126.26,165.85Z" transform="translate(-69.36 -75.69)"/><path class="cls-3" d="M130.23,167.79c-0.52-.21-1-0.45-1.52-0.68L92,177.26,93.16,178l38-9.9C130.86,168,130.54,167.91,130.23,167.79Z" transform="translate(-69.36 -75.69)"/><path class="cls-3" d="M142.09,169.87c-0.65,0-1.28,0-1.91-.08L98.37,181.36l1.24,0.8,49.15-12.8A40.67,40.67,0,0,1,142.09,169.87Z" transform="translate(-69.36 -75.69)"/><path class="cls-3" d="M116,189.52l33.55-8.73q1.46-1.26,2.81-2.67l-39,10.79C114.29,189.14,115.16,189.34,116,189.52Z" transform="translate(-69.36 -75.69)"/><path class="cls-3" d="M129.51,189.89l8.56-2.23a39.4,39.4,0,0,0,7.26-3.69l-22.8,6.31A39.56,39.56,0,0,0,129.51,189.89Z" transform="translate(-69.36 -75.69)"/><path class="cls-3" d="M159.05,165.4a25.34,25.34,0,0,1-7.75,3.43c-0.76.19-1.55,0.35-2.36,0.49l-48.45,13.39,1.27,0.82,49-12.76-48.12,13.3c0.45,0.29.9,0.55,1.35,0.82l47.25-12.31-46.35,12.82c0.5,0.28,1,.55,1.52.8l45.32-11.8-44.34,12.26q0.87,0.4,1.76.76l43.07-11.21-42,11.62q1,0.39,2.09.71l40.14-10.45A38.81,38.81,0,0,0,161,164C160.41,164.5,159.75,165,159.05,165.4Z" transform="translate(-69.36 -75.69)"/><path class="cls-3" d="M120.88,190.2l24.79-6.45a39.14,39.14,0,0,0,3.82-2.88l-32.16,8.9Q119.1,190.06,120.88,190.2Z" transform="translate(-69.36 -75.69)"/><path class="cls-3" d="M115.26,153.31L72.94,165l0.87,0.56,42-11C115.66,154.19,115.44,153.76,115.26,153.31Z" transform="translate(-69.36 -75.69)"/><path class="cls-3" d="M116.06,155l-41,11.35L76,167l40.79-10.63C116.52,155.91,116.28,155.48,116.06,155Z" transform="translate(-69.36 -75.69)"/><path class="cls-3" d="M113.64,147.89L71.39,159.57l-0.65,1L114,149.3C113.86,148.83,113.73,148.37,113.64,147.89Z" transform="translate(-69.36 -75.69)"/><path class="cls-3" d="M114.62,151.53L70.81,163.65l0.86,0.55,43.41-11.32C114.91,152.44,114.77,152,114.62,151.53Z" transform="translate(-69.36 -75.69)"/><path class="cls-3" d="M114.07,149.73L69.86,161.95l-0.5.78,0.16,0.1,44.94-11.72Q114.25,150.42,114.07,149.73Z" transform="translate(-69.36 -75.69)"/><path class="cls-3" d="M118,158.38L79.3,169.1l1,0.61L119,159.63C118.66,159.22,118.35,158.8,118,158.38Z" transform="translate(-69.36 -75.69)"/><path class="cls-3" d="M117,156.72l-39.82,11,0.92,0.59L117.77,158C117.49,157.59,117.24,157.15,117,156.72Z" transform="translate(-69.36 -75.69)"/><path class="cls-3" d="M121.08,162c-0.14-.14-0.26-0.29-0.39-0.42L83.53,171.82l1,0.66,37.4-9.74C121.67,162.48,121.36,162.24,121.08,162Z" transform="translate(-69.36 -75.69)"/><path class="cls-3" d="M119.25,160L81.41,170.46l1,0.64,38-9.89C120,160.81,119.6,160.42,119.25,160Z" transform="translate(-69.36 -75.69)"/><path class="cls-3" d="M122.3,163L85.65,173.18l1.05,0.68,37.06-9.65C123.26,163.84,122.78,163.45,122.3,163Z" transform="translate(-69.36 -75.69)"/><path class="cls-4" d="M155.44,109.68L104.58,96.44l-0.9.46-0.44.24L156.85,112Q156.18,110.8,155.44,109.68Z" transform="translate(-69.36 -75.69)"/><path class="cls-4" d="M152.45,115.51a27.64,27.64,0,0,1,8,4.84,39.55,39.55,0,0,0-3.2-7.74c-0.12-.21-0.24-0.42-0.36-0.62L102.14,97.75l-1.27.69L157.05,114,99.73,99.06l-1.23.67,58.07,16.06L97.33,100.37l-1.21.66,45.45,12.57A29.7,29.7,0,0,1,152.45,115.51Z" transform="translate(-69.36 -75.69)"/><path class="cls-4" d="M149,102.17L113.9,93q-1.12.25-2.24,0.58l39.82,11C150.67,103.77,149.83,103,149,102.17Z" transform="translate(-69.36 -75.69)"/><path class="cls-4" d="M140.74,113.62L94.93,101.69l-1.18.64L136.07,114A32.63,32.63,0,0,1,140.74,113.62Z" transform="translate(-69.36 -75.69)"/><path class="cls-4" d="M151.62,104.8L110.29,94q-0.91.3-1.81,0.65l45.17,12.5Q152.68,106,151.62,104.8Z" transform="translate(-69.36 -75.69)"/><path class="cls-4" d="M153.73,107.29l-46.5-12.1c-0.51.22-1,.45-1.52,0.69l49.7,13.75Q154.6,108.42,153.73,107.29Z" transform="translate(-69.36 -75.69)"/><path class="cls-4" d="M135.31,114.14L92.52,103l-1.14.63,40.85,11.29A28.34,28.34,0,0,1,135.31,114.14Z" transform="translate(-69.36 -75.69)"/><path class="cls-4" d="M129.92,115.72c0.55-.23,1.13-0.41,1.71-0.6L90.11,104.31l-1.1.6L129.24,116C129.47,115.94,129.69,115.82,129.92,115.72Z" transform="translate(-69.36 -75.69)"/><path class="cls-4" d="M122.28,120.46L80.49,109.57l-1,.53,41.53,11.48C121.45,121.18,121.87,120.82,122.28,120.46Z" transform="translate(-69.36 -75.69)"/><path class="cls-4" d="M124.11,119L82.9,108.26l-1,.55,40.8,11.28C123.15,119.7,123.63,119.34,124.11,119Z" transform="translate(-69.36 -75.69)"/><path class="cls-4" d="M128.68,116.3l-41-10.67-1.06.58,40.09,11.08C127.36,116.94,128,116.61,128.68,116.3Z" transform="translate(-69.36 -75.69)"/><path class="cls-4" d="M126.22,117.6L85.3,106.94l-1,.56,40.31,11.14C125.1,118.28,125.66,117.93,126.22,117.6Z" transform="translate(-69.36 -75.69)"/><path class="cls-4" d="M150,133.47a12.24,12.24,0,0,0-.91-2.15l-12.19-3.18a7.28,7.28,0,0,0-1.43,1.21l-0.06.08Z" transform="translate(-69.36 -75.69)"/><path class="cls-4" d="M120.68,122l-42.59-11.1-0.92.5,42.48,11.75C120,122.74,120.33,122.35,120.68,122Z" transform="translate(-69.36 -75.69)"/><path class="cls-4" d="M145.34,99.29l-26.9-7c-1,.1-2,0.25-3,0.44l33.22,9.2A39.19,39.19,0,0,0,145.34,99.29Z" transform="translate(-69.36 -75.69)"/><path class="cls-4" d="M147,128.76a7.71,7.71,0,0,0-5.26-2,11,11,0,0,0-1.4.12Z" transform="translate(-69.36 -75.69)"/><path class="cls-4" d="M141.34,146.67l6.49,1.79-6.88-1.79h-6.66l13.06,3.61-13.83-3.61h-1.19c0.09,0.53.23,1,.36,1.5l14.18,3.92-14.13-3.69a15.7,15.7,0,0,0,.66,1.91l13,3.59-12.9-3.36a12.14,12.14,0,0,0,1.13,2.06l11.29,3.12-11.11-2.9a10.29,10.29,0,0,0,.92,1.12,8,8,0,0,0,2.07,1.48l3.73,1c0.4,0,.79.09,1.22,0.09q5.2,0,7.39-4h5.83a39.51,39.51,0,0,0,3.07-5.93H141.34Z" transform="translate(-69.36 -75.69)"/><path class="cls-4" d="M149,131.26a9.74,9.74,0,0,0-1.37-2c-0.15-.16-0.32-0.27-0.47-0.41L139.83,127a7.91,7.91,0,0,0-2.66,1Z" transform="translate(-69.36 -75.69)"/><path class="cls-4" d="M138.29,155.69a10,10,0,0,0,2.86.74Z" transform="translate(-69.36 -75.69)"/><path class="cls-4" d="M132.67,134.82c-0.13.47-.26,0.94-0.36,1.45h5.94Z" transform="translate(-69.36 -75.69)"/><path class="cls-4" d="M150.48,135.56a16.3,16.3,0,0,0-.5-2.06l-14.77-3.85a11,11,0,0,0-1,1.41Z" transform="translate(-69.36 -75.69)"/><path class="cls-4" d="M139.24,95.76l-13.72-3.57a39.38,39.38,0,0,0-5.15-.06l24.36,6.74A39.46,39.46,0,0,0,139.24,95.76Z" transform="translate(-69.36 -75.69)"/><path class="cls-4" d="M129.34,92.66l7.47,2.07A39.68,39.68,0,0,0,129.34,92.66Z" transform="translate(-69.36 -75.69)"/><path class="cls-4" d="M139,136.27h6.75L133.26,133c-0.19.49-.37,1-0.52,1.52Z" transform="translate(-69.36 -75.69)"/><path class="cls-4" d="M146,136.27h4.61c0-.25-0.1-0.46-0.14-0.7l-16.41-4.27a13.19,13.19,0,0,0-.72,1.47Z" transform="translate(-69.36 -75.69)"/><path class="cls-4" d="M101.58,164.92L123.47,171a39.21,39.21,0,0,0,4.87-.4l-29.77-7.75Q100,163.95,101.58,164.92Z" transform="translate(-69.36 -75.69)"/><path class="cls-4" d="M113.26,145.28l-32.79-8.55,0.59,1.07,32.4,9C113.39,146.27,113.31,145.78,113.26,145.28Z" transform="translate(-69.36 -75.69)"/><path class="cls-4" d="M115.15,153.07c-0.21-.52-0.38-1.07-0.55-1.61l-30.39-7.91,0.62,1.13,30.32,8.39h0Z" transform="translate(-69.36 -75.69)"/><path class="cls-4" d="M116.46,155.83l-29.79-7.76,0.68,1.25,30.19,8.33Q117,156.77,116.46,155.83Z" transform="translate(-69.36 -75.69)"/><path class="cls-4" d="M113.54,147.3L81.72,139l0.59,1.08,31.55,8.73C113.74,148.31,113.62,147.81,113.54,147.3Z" transform="translate(-69.36 -75.69)"/><path class="cls-4" d="M114,149.36l-31-8.08,0.6,1.09,30.84,8.54C114.24,150.4,114.11,149.88,114,149.36Z" transform="translate(-69.36 -75.69)"/><path class="cls-4" d="M117.87,158.13l-30-7.81L88,150.44c0.22,0.4.45,0.79,0.68,1.18l30.7,8.48C118.82,159.47,118.33,158.81,117.87,158.13Z" transform="translate(-69.36 -75.69)"/><path class="cls-4" d="M115.4,153.61l-30-7.8,0.65,1.2,30.1,8.31C115.9,154.77,115.65,154.19,115.4,153.61Z" transform="translate(-69.36 -75.69)"/><path class="cls-4" d="M97.27,161.78l31.54,8.72q1.86-.3,3.71-0.78L95.31,160C95.94,160.64,96.6,161.22,97.27,161.78Z" transform="translate(-69.36 -75.69)"/><path class="cls-4" d="M130.23,167.79a29.42,29.42,0,0,1-3-1.39l-34.39-9q0.7,0.8,1.43,1.56l38.5,10.64c0.62-.17,1.23-0.38,1.84-0.57A28.83,28.83,0,0,1,130.23,167.79Z" transform="translate(-69.36 -75.69)"/><path class="cls-4" d="M122.52,163.23L90.88,155q0.55,0.74,1.13,1.45L126.44,166A26.54,26.54,0,0,1,122.52,163.23Z" transform="translate(-69.36 -75.69)"/><path class="cls-4" d="M121.08,162c-0.45-.44-0.87-0.92-1.28-1.39l-30.53-8c0.29,0.46.58,0.92,0.89,1.36L122,162.78C121.7,162.51,121.37,162.25,121.08,162Z" transform="translate(-69.36 -75.69)"/><path class="cls-4" d="M122.48,171l-19-5A39.63,39.63,0,0,0,122.48,171Z" transform="translate(-69.36 -75.69)"/><path class="cls-4" d="M113.37,137.54l-37.84-9.87L76,128.62l37.15,10.27C113.23,138.43,113.31,138,113.37,137.54Z" transform="translate(-69.36 -75.69)"/><path class="cls-4" d="M115.15,130.6c0-.11.1-0.2,0.14-0.31L70.6,118.66,71,119.42l43.8,12.12C114.94,131.23,115,130.91,115.15,130.6Z" transform="translate(-69.36 -75.69)"/><path class="cls-4" d="M114.64,132.05L71.82,120.89l0.44,0.8,42,11.62C114.34,132.88,114.5,132.47,114.64,132.05Z" transform="translate(-69.36 -75.69)"/><path class="cls-4" d="M116.09,128.56L69.36,116.39l0.4,0.73,45.76,12.67C115.71,129.37,115.89,129,116.09,128.56Z" transform="translate(-69.36 -75.69)"/><path class="cls-4" d="M117,126.86l-46.17-12-0.78.43,46.25,12.8C116.54,127.64,116.79,127.26,117,126.86Z" transform="translate(-69.36 -75.69)"/><path class="cls-4" d="M118.08,125.19L73.26,113.52l-0.83.45,44.87,12.41Q117.67,125.77,118.08,125.19Z" transform="translate(-69.36 -75.69)"/><path class="cls-4" d="M113.66,135.68L74.3,125.42l0.49,0.89L113.45,137C113.51,136.56,113.57,136.11,113.66,135.68Z" transform="translate(-69.36 -75.69)"/><path class="cls-4" d="M113.07,141.78c0-.15,0-0.29,0-0.44L78,132.19l0.56,1,34.55,9.55C113.1,142.44,113.07,142.12,113.07,141.78Z" transform="translate(-69.36 -75.69)"/><path class="cls-4" d="M114.09,133.85l-41-10.69L73.52,124l40.26,11.15C113.88,134.71,114,134.28,114.09,133.85Z" transform="translate(-69.36 -75.69)"/><path class="cls-4" d="M113.17,139.43l-36.41-9.5,0.54,1,35.8,9.9C113.12,140.35,113.14,139.89,113.17,139.43Z" transform="translate(-69.36 -75.69)"/><path class="cls-4" d="M119.27,123.56L75.67,112.21l-0.87.47,43.61,12.06C118.69,124.34,119,123.94,119.27,123.56Z" transform="translate(-69.36 -75.69)"/><path class="cls-4" d="M113.13,143.3l-33.9-8.84,0.57,1.05,33.39,9.23C113.15,144.27,113.15,143.78,113.13,143.3Z" transform="translate(-69.36 -75.69)"/><path class="cls-5" d="M151.31,115.13l-40-39.45h-1.24L148,114.23A26.26,26.26,0,0,1,151.31,115.13Z" transform="translate(-69.36 -75.69)"/><path class="cls-5" d="M152.45,115.51a29.06,29.06,0,0,1,3.83,1.88L114,75.69h-1.28l38.87,39.54C151.88,115.33,152.17,115.41,152.45,115.51Z" transform="translate(-69.36 -75.69)"/><path class="cls-5" d="M147.65,114.16l-39-38.47h-1.2l37.42,38.09Q146.32,113.91,147.65,114.16Z" transform="translate(-69.36 -75.69)"/><path class="cls-5" d="M132.76,136.27h2.53l-2.36-2.33a19,19,0,0,0-.52,2Z" transform="translate(-69.36 -75.69)"/><path class="cls-5" d="M135.39,136.27H138L133.68,132a14.81,14.81,0,0,0-.71,1.76Z" transform="translate(-69.36 -75.69)"/><path class="cls-5" d="M136.74,113.94L98,75.69H96.89l37.94,38.57C135.45,114.13,136.09,114,136.74,113.94Z" transform="translate(-69.36 -75.69)"/><path class="cls-5" d="M144.54,113.73L106,75.69h-1.17l37.28,37.93C142.94,113.64,143.75,113.66,144.54,113.73Z" transform="translate(-69.36 -75.69)"/><path class="cls-5" d="M139.15,113.69l-38.48-38H99.53l37.57,38.2C137.77,113.8,138.46,113.73,139.15,113.69Z" transform="translate(-69.36 -75.69)"/><path class="cls-5" d="M141.36,113.59h0.38L103.33,75.69h-1.15l37.34,38C140.13,113.64,140.74,113.59,141.36,113.59Z" transform="translate(-69.36 -75.69)"/><path class="cls-5" d="M132.31,146.67a13.47,13.47,0,0,0,3.38,7.28,8,8,0,0,0,.72.59A39.21,39.21,0,0,0,159,146.67H132.31Z" transform="translate(-69.36 -75.69)"/><path class="cls-5" d="M148.32,77.87q-1.31-.45-2.65-0.82l27.93,28.4c-0.32-1.27-.69-2.53-1.13-3.75Z" transform="translate(-69.36 -75.69)"/><path class="cls-5" d="M170.42,97L153,79.84q-1.67-.83-3.42-1.51l22.87,23.26A39.21,39.21,0,0,0,170.42,97Z" transform="translate(-69.36 -75.69)"/><polygon class="cls-5" points="104.24 29.77 104.24 29.77 104.25 29.78 104.24 29.77"/><path class="cls-5" d="M164.69,88.75l-3.26-3.22a39.54,39.54,0,0,0-7-4.94l15.81,16.08A39.55,39.55,0,0,0,164.69,88.75Z" transform="translate(-69.36 -75.69)"/><path class="cls-5" d="M140.66,136.27h10a12.42,12.42,0,0,0-3-7,7.79,7.79,0,0,0-2.37-1.72l3.08,3.13-3.29-3.25a8.13,8.13,0,0,0-3.18-.65L147,132l-5.3-5.24a10.5,10.5,0,0,0-2.23.25l6.2,6.31-6.35-6.27a7.93,7.93,0,0,0-1.8.66l6.82,6.94-7-6.86a7.19,7.19,0,0,0-1.43,1l7.06,7.18L135.89,129c-0.15.14-.31,0.25-0.45,0.4a10.76,10.76,0,0,0-.69.9Z" transform="translate(-69.36 -75.69)"/><path class="cls-5" d="M132.37,136c0,0.08,0,.15-0.06.23h0.29Z" transform="translate(-69.36 -75.69)"/><path class="cls-5" d="M138,136.27h2.6l-6-5.89a12,12,0,0,0-.91,1.54Z" transform="translate(-69.36 -75.69)"/><path class="cls-5" d="M160.92,120.77A26.4,26.4,0,0,1,168.1,132q0.58,1.72,1,3.52a39.13,39.13,0,0,0,4.5-30.07L144.53,76.77q-1.11-.26-2.23-0.46l30,30.5L141.2,76.12q-1-.14-2-0.24L171,108.13,138.2,75.8q-0.87-.06-1.75-0.08l33.19,33.74L135.41,75.69h-1.63l34.52,35.1-35.57-35.1h-1.59L167,112.11,130.06,75.69h-1.55l37.14,37.76L127.39,75.69h-1.52l38.45,39.08-39.6-39.08h-1.47L163,116.1,122,75.69h-1.42l41,41.74-42.3-41.74H118l42.35,43.07L116.68,75.69h-1.33l41.11,41.81A26.7,26.7,0,0,1,160.92,120.77Z" transform="translate(-69.36 -75.69)"/><path class="cls-5" d="M134.47,114.34L95.91,76.25v1.12l36.78,37.39C133.27,114.6,133.87,114.47,134.47,114.34Z" transform="translate(-69.36 -75.69)"/><path class="cls-5" d="M117.28,126.42L95.91,105.34v1.51l20.58,20.92C116.74,127.31,117,126.86,117.28,126.42Z" transform="translate(-69.36 -75.69)"/><path class="cls-5" d="M114.09,133.83L95.93,115.9c0,0.58,0,1.15.07,1.72l17.68,18C113.79,135,113.94,134.42,114.09,133.83Z" transform="translate(-69.36 -75.69)"/><path class="cls-5" d="M114.73,131.82L95.91,113.25v1.62l18.27,18.58C114.34,132.9,114.54,132.36,114.73,131.82Z" transform="translate(-69.36 -75.69)"/><path class="cls-5" d="M113.59,136L96.08,118.69q0.09,1,.22,1.91l17,17.32C113.4,137.27,113.47,136.61,113.59,136Z" transform="translate(-69.36 -75.69)"/><path class="cls-5" d="M115.15,130.6c0.1-.24.21-0.45,0.32-0.69L95.91,110.62v1.58l18.94,19.26C115,131.17,115,130.88,115.15,130.6Z" transform="translate(-69.36 -75.69)"/><path class="cls-5" d="M115.62,129.56c0.22-.49.43-1,0.67-1.46L95.91,108v1.53Z" transform="translate(-69.36 -75.69)"/><path class="cls-5" d="M113.14,143.45L98.38,128.88q0.63,1.7,1.41,3.32L113.36,146Q113.2,144.76,113.14,143.45Z" transform="translate(-69.36 -75.69)"/><path class="cls-5" d="M113.41,146.36l-12.89-12.72a39.47,39.47,0,0,0,3.9,6l6,6.12a39.06,39.06,0,0,0,3.25,2.38C113.57,147.53,113.49,146.94,113.41,146.36Z" transform="translate(-69.36 -75.69)"/><path class="cls-5" d="M113.27,138.3l-16.8-16.58q0.19,1.1.43,2.18l16.23,16.51C113.16,139.7,113.19,139,113.27,138.3Z" transform="translate(-69.36 -75.69)"/><path class="cls-5" d="M113.07,141.78c0-.34,0-0.67,0-1L97.17,125.05c0.23,0.88.5,1.75,0.78,2.61l15.17,15.43C113.11,142.66,113.07,142.23,113.07,141.78Z" transform="translate(-69.36 -75.69)"/><path class="cls-5" d="M125.42,118.08c0.43-.28.88-0.53,1.33-0.79L95.91,86.86v1.2Z" transform="translate(-69.36 -75.69)"/><path class="cls-5" d="M130.72,115.44c0.53-.2,1.07-0.4,1.62-0.57l-36.43-36V80Z" transform="translate(-69.36 -75.69)"/><path class="cls-5" d="M125.07,118.28L95.91,89.51v1.25l27.95,28.42C124.26,118.88,124.65,118.56,125.07,118.28Z" transform="translate(-69.36 -75.69)"/><path class="cls-5" d="M128.51,116.38L95.91,84.2v1.19l31.17,31.71C127.54,116.84,128,116.61,128.51,116.38Z" transform="translate(-69.36 -75.69)"/><path class="cls-5" d="M129.92,115.72l0.44-.15-34.45-34v1.17l32.94,33.5C129.21,116.06,129.55,115.87,129.92,115.72Z" transform="translate(-69.36 -75.69)"/><path class="cls-5" d="M122.1,120.62L95.91,94.77v1.39L121,121.64C121.34,121.28,121.73,121,122.1,120.62Z" transform="translate(-69.36 -75.69)"/><path class="cls-5" d="M120.74,121.92L95.91,97.41v1.43L119.74,123C120.06,122.66,120.39,122.28,120.74,121.92Z" transform="translate(-69.36 -75.69)"/><path class="cls-5" d="M123.54,119.41L95.91,92.14v1.32l26.47,26.9Q122.95,119.87,123.54,119.41Z" transform="translate(-69.36 -75.69)"/><path class="cls-5" d="M118.56,124.53c0.3-.41.6-0.82,0.93-1.21L95.91,100.05v1.46Z" transform="translate(-69.36 -75.69)"/><path class="cls-5" d="M118.34,124.83L95.91,102.69v1.5l21.56,21.91C117.74,125.66,118,125.24,118.34,124.83Z" transform="translate(-69.36 -75.69)"/><path class="cls-6" d="M210.1,157.63h-0.24a13.53,13.53,0,0,1-11.32,5.27,16.82,16.82,0,0,1-7.15-1.49,15.34,15.34,0,0,1-5.5-4.28,20.16,20.16,0,0,1-3.54-6.76,29.46,29.46,0,0,1-1.26-8.92,29.08,29.08,0,0,1,1.14-8.21,20,20,0,0,1,3.38-6.76,16.34,16.34,0,0,1,5.58-4.56,16.92,16.92,0,0,1,7.74-1.69,13.88,13.88,0,0,1,6.64,1.57,13.25,13.25,0,0,1,5,4.87h0.24v-5.19H225v53.37H210.1V157.63Zm-7-5.9a6.5,6.5,0,0,0,5.5-2.75,11.69,11.69,0,0,0,2-7.15,11.92,11.92,0,0,0-2-7.15,6.45,6.45,0,0,0-5.5-2.83,5.82,5.82,0,0,0-5.11,2.67,12.89,12.89,0,0,0-1.81,7.31A12.69,12.69,0,0,0,198,149.1,5.84,5.84,0,0,0,203.11,151.73Z" transform="translate(-69.36 -75.69)"/><path class="cls-6" d="M253.09,161.55v-5.19h-0.24a16.1,16.1,0,0,1-5.31,4.79,14.81,14.81,0,0,1-7.19,1.65,16,16,0,0,1-6.29-1.14,12,12,0,0,1-4.44-3.18,13.72,13.72,0,0,1-2.67-4.87,20.59,20.59,0,0,1-.9-6.29V121.47h14.85v22.32q0,6.37,5.34,6.37a5.62,5.62,0,0,0,4.52-1.89,7.74,7.74,0,0,0,1.61-5.19V121.47h14.85v40.08H253.09Z" transform="translate(-69.36 -75.69)"/><path class="cls-6" d="M293.8,161.55a10.89,10.89,0,0,1-.75-1.73,14.81,14.81,0,0,1-.59-2.67h-0.16a12.5,12.5,0,0,1-5.11,4.09,18.79,18.79,0,0,1-12.34.55,12.24,12.24,0,0,1-4.21-2.28,10.5,10.5,0,0,1-2.79-3.73,12.48,12.48,0,0,1-1-5.23A11.8,11.8,0,0,1,268,145a10.22,10.22,0,0,1,3.18-3.65,14.45,14.45,0,0,1,4.64-2.12,36.51,36.51,0,0,1,5.54-1q3.14-.31,5.23-0.71a15.91,15.91,0,0,0,3.34-.94,4.07,4.07,0,0,0,1.73-1.22,2.72,2.72,0,0,0,.47-1.61,4.2,4.2,0,0,0-.9-2.75q-0.9-1.1-3.34-1.1a4.91,4.91,0,0,0-3.69,1.3,6.1,6.1,0,0,0-1.57,3.5H268.57a14.1,14.1,0,0,1,1.3-5.62,13.11,13.11,0,0,1,3.58-4.6,17.48,17.48,0,0,1,5.89-3.11,27,27,0,0,1,8.25-1.14,39.91,39.91,0,0,1,7.74.63,16.28,16.28,0,0,1,5.38,2q6.21,3.85,6.21,12v20a21.65,21.65,0,0,0,.27,3.93,3,3,0,0,0,1.22,2v0.63H293.8Zm-8-7.78a7.57,7.57,0,0,0,4.68-1.57q2.08-1.57,2.08-5.19v-3.54a20.2,20.2,0,0,1-2.48,1,27.51,27.51,0,0,1-3.26.86,10.64,10.64,0,0,0-4.48,1.73,3.55,3.55,0,0,0-1.18,2.83,3.23,3.23,0,0,0,1.41,2.95A5.85,5.85,0,0,0,285.79,153.77Z" transform="translate(-69.36 -75.69)"/><path class="cls-6" d="M306.14,121.47h5.19v-13h14.54v13h7.62v9h-7.62V146.7a4.4,4.4,0,0,0,.51,2.32,2.81,2.81,0,0,0,1.49,1.18,7.65,7.65,0,0,0,2.36.39,26.2,26.2,0,0,0,3.1-.12V161.4q-1.73.39-3.5,0.67a24.81,24.81,0,0,1-3.81.28,31.08,31.08,0,0,1-6.44-.59,11,11,0,0,1-4.56-2,8.84,8.84,0,0,1-2.75-3.77,16.22,16.22,0,0,1-.94-6V130.43h-5.19v-9Z" transform="translate(-69.36 -75.69)"/><path class="cls-6" d="M347.56,127.52h0.24a15.12,15.12,0,0,1,5.38-5.34,14.23,14.23,0,0,1,6.8-1.57,5.72,5.72,0,0,1,2.44.39v12.65H362.1q-6.6-1.1-10.22,1.77t-3.62,9.71v16.43H333.41V121.47h14.15v6.05Z" transform="translate(-69.36 -75.69)"/><path class="cls-6" d="M382,162.81a24.38,24.38,0,0,1-9.08-1.61,20.5,20.5,0,0,1-6.92-4.44,19.64,19.64,0,0,1-4.44-6.72,23.5,23.5,0,0,1,0-16.9,19.82,19.82,0,0,1,11.36-11.24,26.37,26.37,0,0,1,18.16,0,19.47,19.47,0,0,1,11.24,11.24,24.05,24.05,0,0,1,0,16.9,19.46,19.46,0,0,1-4.36,6.72,20.09,20.09,0,0,1-6.88,4.44A24.39,24.39,0,0,1,382,162.81Zm-0.16-9.9a5.59,5.59,0,0,0,5.19-3.1,16.85,16.85,0,0,0,1.73-8.21,16.86,16.86,0,0,0-1.73-8.21,5.59,5.59,0,0,0-5.19-3.1,5.43,5.43,0,0,0-5.11,3.1,17.53,17.53,0,0,0-1.65,8.21,17.52,17.52,0,0,0,1.65,8.21A5.42,5.42,0,0,0,381.83,152.91Z" transform="translate(-69.36 -75.69)"/><path class="cls-6" d="M417.75,127H418a17.52,17.52,0,0,1,5.54-5,14.87,14.87,0,0,1,7.35-1.73q7,0,10.53,4.24t3.54,11.16v25.94H430.09V139.23a8.54,8.54,0,0,0-1.34-5,4.84,4.84,0,0,0-4.24-1.89,5.23,5.23,0,0,0-4.44,2.16,8.89,8.89,0,0,0-1.61,5.46v21.61H403.6V121.47h14.15V127Z" transform="translate(-69.36 -75.69)"/><path class="cls-6" d="M446,105.36h14.85V116.6H446V105.36Zm0,16.11h14.85v40.08H446V121.47Z" transform="translate(-69.36 -75.69)"/><path class="cls-6" d="M482.66,162.81a24.16,24.16,0,0,1-9-1.61,20.93,20.93,0,0,1-7-4.44,19.37,19.37,0,0,1-4.48-6.72,23.5,23.5,0,0,1,0-16.9,19.79,19.79,0,0,1,4.48-6.76,20.62,20.62,0,0,1,7-4.48,26,26,0,0,1,16.74-.43,18.74,18.74,0,0,1,6.05,3.3,16.82,16.82,0,0,1,4.13,5.07,17.85,17.85,0,0,1,2,6.48h-14.3a9.15,9.15,0,0,0-2-4.21,4.87,4.87,0,0,0-3.77-1.45,5.48,5.48,0,0,0-5.11,2.91,16.32,16.32,0,0,0-1.65,8,15.28,15.28,0,0,0,1.73,7.9,5.66,5.66,0,0,0,5.19,2.87,4.91,4.91,0,0,0,4.13-1.77,9.94,9.94,0,0,0,1.69-5.23h14.3a16.36,16.36,0,0,1-1.45,6.88,16.68,16.68,0,0,1-4.09,5.54,19,19,0,0,1-6.37,3.69A24.23,24.23,0,0,1,482.66,162.81Z" transform="translate(-69.36 -75.69)"/></g></g></svg>